# xmcd CD database file
#
# Track frame offsets:
#	151
#	11565
#	21974
#	32657
#	46120
#	59308
#	71068
#	84182
#	93508
#	105328
#	116016
#	124765
#	136245
#	147168
#	158068
#	171364
#	185352
#	195195
#	207353
#	218824
#	229795
#	241974
#	252416
#	265130
#	276071
#
# Disc length: 3808 seconds
#
# Revision: 0
# Processed by: cddbd v1.4PL0 Copyright (c) Steve Scherf et al.
# Submitted via: CDex 1.40Release
#
DISCID=560ede19
DTITLE=Charlie Rich - The Sun Years
DYEAR=2001
DGENRE=Country
TTITLE0=Break Up
TTITLE1=Everything I Do Is Wrong
TTITLE2=Finally Found Out
TTITLE3=Juanita
TTITLE4=Stay
TTITLE5=Caught In The Middle
TTITLE6=Easy Money
TTITLE7=Philadelphia Baby
TTITLE8=It Hurts Me So
TTITLE9=I Need Your Love
TTITLE10=Rebound
TTITLE11=On My Knees
TTITLE12=Just A Little Bit Sweet
TTITLE13=C.C. Rider
TTITLE14=Midnight Blues
TTITLE15=Sittin' And Thinkin'
TTITLE16=Whirlwind
TTITLE17=There's Another Place That I Can't Go
TTITLE18=Schooldays
TTITLE19=Gonna Be Waiting
TTITLE20=It's Too Late
TTITLE21=Noe Everybody Knows
TTITLE22=Big Man
TTITLE23=Who Will The Next Fool Be
TTITLE24=Lonely Weekends
EXTD=YEAR: 2001 ID3G: 2
EXTT0=
EXTT1=
EXTT2=
EXTT3=
EXTT4=
EXTT5=
EXTT6=
EXTT7=
EXTT8=
EXTT9=
EXTT10=
EXTT11=
EXTT12=
EXTT13=
EXTT14=
EXTT15=
EXTT16=
EXTT17=
EXTT18=
EXTT19=
EXTT20=
EXTT21=
EXTT22=
EXTT23=
EXTT24=
PLAYORDER=
